<?xml version="1.0" encoding="UTF-8" standalone="no"?>
<svg width="26px" height="32px" viewBox="0 0 26 32" version="1.1" xmlns="http://www.w3.org/2000/svg" xmlns:xlink="http://www.w3.org/1999/xlink" xmlns:sketch="http://www.bohemiancoding.com/sketch/ns">
    <!-- Generator: Sketch 3.4.2 (15855) - http://www.bohemiancoding.com/sketch -->
    <title>Path</title>
    <desc>Created with Sketch.</desc>
    <defs></defs>
    <g id="Page-1" stroke="none" stroke-width="1" fill="none" fill-rule="evenodd" sketch:type="MSPage">
        <path d="M25.3793103,12.6829268 C25.3793103,13.9580048 25.1910495,15.1891353 24.8407935,16.3500666 C24.8102675,16.4539007 24.7419852,16.4539007 24.6652262,16.349189 C23.6246753,14.9931843 22.3550307,13.8220163 20.9141167,12.8934791 C20.8269677,12.822695 20.6895364,12.6829271 20.6895356,12.4162428 C20.5487886,8.12141777 17.0209862,4.68292683 12.6896552,4.68292683 C8.26903326,4.68292683 4.68541114,8.26464883 4.68541114,12.6829268 C4.66615123,12.9361702 4.68891433,12.9929078 4.44825568,13.1656111 C3.06234183,14.1247851 1.84777249,15.3137868 0.859724015,16.677469 C0.773896863,16.782978 0.682851399,16.7943262 0.641700849,16.6759873 C0.225367744,15.4204994 0,14.0780179 0,12.6829268 C0,10.5971549 0.503756054,8.62897907 1.39629902,6.8933076 C0.542681231,6.17744873 0,5.10328527 0,3.90243902 C0,1.74718146 1.74810835,0 3.90450928,0 C5.10599258,0 6.18072589,0.542393489 6.89696452,1.39555867 C8.63355678,0.503488951 10.6027767,0 12.6896552,0 C14.6685499,0 16.5416473,0.452731808 18.2109177,1.26021765 C18.9244716,0.485445333 19.9476899,0 21.0843501,0 C23.2407511,0 24.9888594,1.74718146 24.9888594,3.90243902 C24.9888594,4.97488416 24.5560266,5.94628937 23.8554328,6.65167044 C24.8274047,8.44540739 25.3793103,10.4997491 25.3793103,12.6829268 Z M12.6896552,32 C16.2477167,32 19.1320955,29.1171506 19.1320955,25.5609756 C19.1320955,22.0048006 16.2477167,19.1219512 12.6896552,19.1219512 C9.13159363,19.1219512 6.24721485,22.0048006 6.24721485,25.5609756 C6.24721485,29.1171506 9.13159363,32 12.6896552,32 L12.6896552,32 L12.6896552,32 Z" id="Path" fill="#FFFFFF" sketch:type="MSShapeGroup"></path>
    </g>
</svg>